<svg id="图层_1" data-name="图层 1" xmlns="http://www.w3.org/2000/svg" viewBox="0 0 1134.875 228.7616"><defs><style>.cls-1{fill:#fff;}</style></defs><title>JumpServer-svg</title><path class="cls-1" d="M93.9313,20.842c-7.45,4.3207-15.1294,8.2412-22.6632,12.4187C62.68,38.0242,54.1463,42.8932,44.561,48.2943,64.8724,61.3107,84.4,73.8209,105.0367,87.0432c-3.9533,2.3452-7.19,4.0121-10.1453,6.08-3.0117,2.11-5.5318,2.0519-8.7237.1119C69.6756,83.22,52.8184,73.7833,36.5792,63.3806c-6.85-4.3888-12.2647-5.27-19.1849-.4424-6.7147,4.6836-7.2319,10.1993-.26,14.5739,3.3749,2.1174,6.761,4.2125,10.1339,6.3345,17.958,11.3073,36.2648,22.1059,53.7425,34.1156,10.8972,7.4888,20.85,7.18,31.5132.789q14.7893-8.8591,29.5506-17.7708c3.6253-2.1989,7.1637-4.541,11.473-7.2811-19.34-12.3885-37.9159-24.2878-57.09-36.5671,3.3142-2.3441,6.0215-3.993,8.4125-6.0182,3.2107-2.7167,5.9833-2.8529,9.7893-.6352,16.1149,9.3933,32.4078,18.4874,48.71,27.5583,10.9576,6.0962,11.0116,5.9976,19.4985-3.204a6.8619,6.8619,0,0,0-1.817-11.0164C155.0791,49.4677,129.0768,35.17,103.17,20.6986,99.8092,18.823,97.18,18.9564,93.9313,20.842Z"/><path class="cls-1" d="M111.5354,135.9783c-9.0211,4.72-18.4968,5.0893-27.6608-.4309Q51.8412,116.2513,19.757,97.0411c-2.0725-1.2459-4.178-2.4381-7.1754-4.18,0,8.2484.3186,15.4238-.1174,22.5556-.2645,4.3108,1.314,6.6952,4.8741,8.74,23.007,13.201,45.885,26.6276,68.9187,39.7844a24.5616,24.5616,0,0,0,23.85.8267c14.8059-7.6017,57.6846-34.101,72.0941-42.4589,1.3749-.7989,3.1266-2.4758,3.1713-3.8.2879-8.4259.1473-16.8662.1473-25.8679-2.3418,1.3293-4.3746,2.4865-6.41,3.6365C166.1446,103.6084,124.7251,129.0813,111.5354,135.9783Z"/><path class="cls-1" d="M126.9594,165.7165c-6.3537,3.5291-12.7587,7.0305-19.3984,9.9575-7.3326,3.2319-14.7987,3.2417-21.9763-1.0084-6.012-3.56-12.1736-6.8718-18.1573-10.4762-10.7587-6.4848-21.41-13.157-32.1592-19.6563-7.2465-4.3817-14.5881-8.6058-22.6118-13.3271,0,9.1423-.1052,17.2718.1079,25.3931a5.3173,5.3173,0,0,0,2.3462,3.6912c23.6118,14.1359,47.1714,28.3679,71.0384,42.0677a24.5541,24.5541,0,0,0,25.0631.2606c14.2606-7.9439,58.6823-34.3843,72.8135-42.5558,1.246-.7209,2.8619-2.2106,2.8967-3.3866.2531-8.33.1336-16.67.1336-25.47a11.2987,11.2987,0,0,0-2.9179.8007C175.1517,137.114,135.9943,160.7,126.9594,165.7165Z"/><path class="cls-1" d="M101.8233,1.4714l-.62-.3771L.9984,59.21.42,59.5587V167.0942l100.7831,61.6674,100.223-61.3174.56-.35V59.5587Zm97.7642,164.2972-98.3846,60.1589L2.818,165.7686V60.9121L101.2029,3.9005l98.3846,57.0116Z"/><path class="cls-1" d="M299.2616,130.3368c0,11.2809-.1941,23.0311-3.9537,29.2812q-4.343,7.3926-14.2534,12.7293c-9.1452,4.5737-21.7075,3.8743-34.3076,3.8743h-4.6507l2.5779-26.3563c3.3023,0,16.2511-.3508,18.4366-1.47,5.4858-2.7932,6.2729-6.4984,6.2729-14.0195V53.4484l29.878-2.4016Z"/><path class="cls-1" d="M529.9717,126.45V175.155H504.0558V121.8q0-7.7732-7.1643-9.375a20.0522,20.0522,0,0,0-8.613.3811,31.2927,31.2927,0,0,0-7.4689,3.0487v59.3H454.8934V121.8q0-7.7732-7.1641-9.375a30.1,30.1,0,0,0-5.0308-.1524,42.2729,42.2729,0,0,0-4.9536.9906A25.7978,25.7978,0,0,0,431.8,115.855h-.1525v59.3H406.0361V91.6174h23.2044s.1439,4.7771.3487,5.4878l.9142-.457q.8391-.4572,1.5239-.8392,2.364-1.1432,4.8031-2.0572a53.1278,53.1278,0,0,1,6.86-1.9822,49.1208,49.1208,0,0,1,8.5358-1.0667h1.4486c3.8117-.1011,8.085.4357,10.6358,1.7817,4.9347,2.6042,5.6487,4.5935,8.1912,6.728a.7474.7474,0,0,1,.5344.1525c2.1835-.8132,5.39-3.6079,6.95-4.4088a37.0352,37.0352,0,0,1,7.5035-3.0916,41.6035,41.6035,0,0,1,11.9179-1.3142q22.41,0,27.2874,11.7379Q529.97,107.1669,529.9717,126.45Z"/><path class="cls-1" d="M675.2393,177.5952a187.878,187.878,0,0,1-19.7414-1.1438q-4.1143-.4572-8.46-1.0669l-6.7821-1.0666-3.7619-29.1168,7.284,3.1172,8.9776,2.5239q5.3325.8391,10.0616,1.2943,5.6393.5353,10.212.5344,16.6173,0,19.2089-7.5463c.9645-2.0833.9145-7.778-.1524-9.7611q-1.6-3.2752-6.7842-5.64a54.6953,54.6953,0,0,0-5.5631-2.0582l-6.5568-1.9809q-4.3429-1.0678-7.7737-2.1336-4.4212-1.3744-8.0785-2.8964-9.0712-3.81-14.101-8.8414a24.2634,24.2634,0,0,1-6.1748-12.5008,40.3058,40.3058,0,0,1-.2275-11.9666q2.0572-19.3587,16.5391-26.6006a42.7151,42.7151,0,0,1,13.0341-4.1918q2.9717-.4585,6.7823-.7629l6.5568-.4572h4.419q7.5465,0,16.6165.9144l7.3939.8393,6.25.9142,2.9287,28.4943a31.8059,31.8059,0,0,0-12.9131-5.171,126.0542,126.0542,0,0,0-17.5307-1.3715q-17.3781,0-20.428,7.85a8.2944,8.2944,0,0,0,.1525,6.2509q1.6749,3.4286,7.3186,6.0213,2.3608,1.0677,5.9452,2.2857l15.09,4.4975q4.3461,1.3718,7.7758,2.82,8.307,3.5068,12.575,8.08a23.6047,23.6047,0,0,1,6.48,12.575,67.4288,67.4288,0,0,1,.2274,15.4014q-2.0571,19.21-16.539,26.6007a40.4762,40.4762,0,0,1-13.0341,4.1165q-2.9716.4569-6.7823.7618l-5.87.382Z"/><path class="cls-1" d="M950.8759,175.155H918.1026L888.6045,91.922H919.08L934.3369,152.76,949.1836,91.922H979.46Z"/><path class="cls-1" d="M545.5547,91.3932h20.9576l1.2028,5.4083a66.2719,66.2719,0,0,1,6.76-3.08,45.4258,45.4258,0,0,1,8.0377-2.3282,36.8942,36.8942,0,0,1,18.8543.8261,22.435,22.435,0,0,1,10.0661,6.61,23.208,23.208,0,0,1,2.8536,3.9062l.9773,1.7276q.3736.7515.75,1.5771a43.6566,43.6566,0,0,1,2.2539,9.4647,114.29,114.29,0,0,1,.827,15.3239v7.9627c0,12.27-1.0275,17.0239-3.0809,20.68q-4.8843,11.4929-26.8918,11.4928a59.2737,59.2737,0,0,1-7.3614-.451l-5.7088-1.0517a37.6291,37.6291,0,0,1-5.1073-1.5773v43.4809l-25.39-2.0363Zm25.39,54.6322a24.761,24.761,0,0,0,11.8687,3.53l3.6807-.15q7.06-1.5776,7.06-9.164V124.3691a16.0281,16.0281,0,0,0-.6013-5.1081Q590.7,111.6,580.4846,113.2522l-2.78.45-4.8068,1.3525-1.9529.6759Z"/><path class="cls-1" d="M811.69,126.25v14.8307H764.907v2.5224q0,8.4849,5.1977,10.32a33.7168,33.7168,0,0,0,9.173,1.1468h2.0641c9.1729,0,14.7323-.2516,24.3643-2.2391h.1513l3.8449,20.2033q0,.3834-13.1483,2.5229a173.59,173.59,0,0,1-18.9579.9175q-27.519,0-35.5475-18.5764a40.471,40.471,0,0,1-2.9806-15.3653V122.5045q0-22.0161,18.499-29.2786a55.9723,55.9723,0,0,1,17.5059-2.6754q25.9147,0,33.6362,16.8939Q811.6908,114.0962,811.69,126.25Zm-25.8373-3.8987q0-8.7146-3.7457-10.32a12.0113,12.0113,0,0,0-6.8809-1.911q-10.319,0-10.3189,9.7084v3.8988h20.9455Z"/><path class="cls-1" d="M1062.2984,126.25v14.8307h-46.7828v2.5224q0,8.4849,5.1977,10.32a33.7168,33.7168,0,0,0,9.173,1.1468h2.0641c9.1729,0,14.7324-.2516,24.3643-2.2391h.1513l3.8449,20.2033q0,.3834-13.1483,2.5229a173.59,173.59,0,0,1-18.9579.9175q-27.519,0-35.5475-18.5764a40.471,40.471,0,0,1-2.9806-15.3653V122.5045q0-22.0161,18.499-29.2786a55.9723,55.9723,0,0,1,17.5059-2.6754q25.9148,0,33.6365,16.8939Q1062.2993,114.0962,1062.2984,126.25Zm-25.8373-3.8987q0-8.7146-3.7457-10.32a12.0111,12.0111,0,0,0-6.8809-1.911q-10.3189,0-10.3189,9.7084v3.8988h20.9455Z"/><path class="cls-1" d="M882.2065,93.9354,881.1523,114.65c-4.0824-.1986-5.4761-.6691-10.008-.48l-3.3357.3431a96.9518,96.9518,0,0,0-15.8052,4.2179V174.065H827.0615V91.922H848.5s.889,4.2826,1.3375,5.9743l5.8247-2.1658a42.4932,42.4932,0,0,1,12.4454-2.6493C876.9139,92.798,879.383,93.3042,882.2065,93.9354Z"/><path class="cls-1" d="M1134.0092,93.9354,1132.955,114.65c-4.0824-.1986-5.4761-.6691-10.0079-.48l-3.3357.3431a96.9522,96.9522,0,0,0-15.8053,4.2179V174.065h-24.9418V91.922h21.4386s.889,4.2826,1.3374,5.9743l5.8247-2.1658a42.4932,42.4932,0,0,1,12.4454-2.6493C1128.7166,92.798,1131.1857,93.3042,1134.0092,93.9354Z"/><path class="cls-1" d="M314.4625,139.7315V91.922l25.9126,1.74V144.43q0,7.8045,7.425,9.4709a29.7555,29.7555,0,0,0,5.0009.1516c3.99-.2527,6.9892-.43,10.8813-1.8922l.4079-60.238,25.761,2.3469v80.3919h-23.02s-.599-2.725-.8-3.4834c0,0-11.79,3.0283-14.0629,3.4834a50.5578,50.5578,0,0,1-8.6375,1.0606q-8.8653.455-14.2444-1.5908-6.8956-2.6515-11.5166-10.0017Q314.4613,157.6893,314.4625,139.7315Z"/></svg>