<svg width="186px" height="38.5574504px" viewBox="0 0 186 38.5574504" version="1.1" xmlns="http://www.w3.org/2000/svg">
    <g id="页面-2" stroke="none" stroke-width="1" fill="none" fill-rule="evenodd">
        <path d="M17.0419998,0 L17.543499,0.290502573 L33.6020734,9.59272569 L34.1008291,9.88163908 L34.1008291,28.1383823 L33.6220687,28.430796 L17.5634943,38.2389298 L17.0419897,38.5574504 L16.5206292,38.2386939 L0.478374448,28.4305601 L0,28.138085 L0,9.88193288 L0.498374101,9.59294688 L16.5406289,0.290723764 L17.0419998,0 Z M17.0422548,1.15580842 L1,10.4580315 L1,27.5773856 L17.0422548,37.3855194 L33.1008291,27.5773856 L33.1008291,10.4580315 L17.0422548,1.15580842 Z M31.060868,21.9307726 C31.060868,23.3669058 31.0771878,24.7214401 31.0282286,26.0922934 C31.0282286,26.2881293 30.7671136,26.5166052 30.5549577,26.6471631 C28.2538815,27.9690574 21.0079393,32.2937761 18.6742237,33.5830305 C17.3196895,34.3337361 15.8835568,34.2847771 14.5779816,33.5503924 C10.6938956,31.3145946 6.84244883,28.9808788 2.99100211,26.679803 C2.81148553,26.5655642 2.61564925,26.2881293 2.61564925,26.0759743 C2.58300989,24.75408 2.59932958,23.4158648 2.59932958,21.9307726 C3.90490473,22.6977991 5.09624205,23.3832248 6.28757938,24.1012923 C8.03378617,25.1620709 9.77999293,26.2554912 11.5261997,27.3162698 C12.5053811,27.9037794 13.5172018,28.4423282 14.4963832,29.0298378 C15.6714008,29.7152654 16.8790579,29.7152654 18.0867149,29.1930338 C19.1638144,28.703444 20.2082745,28.1322553 21.2527347,27.5610665 C22.7215068,26.745081 29.118825,22.893635 30.5712773,22.0613305 C30.7344742,21.9797315 30.9139909,21.9634125 31.060868,21.9307726 Z M30.7997529,15.6313719 C30.7997529,17.1001451 30.8323923,18.4873193 30.7834333,19.8581726 C30.7671136,20.0703276 30.4896789,20.3477624 30.2612032,20.4783203 C29.1930054,21.1014355 27.1638341,22.3348534 25.0411709,23.6114921 L24.1891757,24.1231085 C21.9148585,25.4863968 19.6657685,26.8128324 18.4947071,27.4141877 C17.2544107,28.0343373 15.8509174,27.9853783 14.610621,27.2673108 C10.8407728,25.1294328 7.10356386,22.942594 3.35003528,20.7883951 C2.77884614,20.4456804 2.51773112,20.0540085 2.56669019,19.3522619 C2.63196894,18.1935635 2.58300989,17.0185461 2.58300989,15.6803309 C3.07260057,15.9577657 3.41531405,16.1536035 3.75802753,16.3494394 C7.23412139,18.4546793 10.7265349,20.5435983 14.2189485,22.6325192 C15.7040402,23.5464227 17.2544107,23.4811428 18.7231828,22.7141181 C20.8773817,21.5880597 27.6337332,17.4265389 29.7552929,16.2352006 C30.0816867,16.0393647 30.4244001,15.8598478 30.7997529,15.6313719 Z M17.3686486,3.89751507 C21.5954482,6.26387077 25.8385673,8.59758654 30.0816867,10.9313023 C30.7671136,11.3229742 30.9139909,12.1552787 30.3754411,12.7264674 C28.9882675,14.2278786 28.9719477,14.2441995 27.1931016,13.2486972 C24.5329922,11.7799259 21.8728828,10.2948337 19.2454128,8.76078438 C18.6252646,8.40175061 18.1683133,8.41806966 17.6460833,8.85870234 C17.2544107,9.18509617 16.8137791,9.46253101 16.2752293,9.83788382 C19.3922901,11.8452039 22.4277523,13.7872478 25.5774523,15.8108888 C24.8757056,16.2515215 24.3045165,16.6431933 23.7170078,17.0022271 C22.1067984,17.9705274 20.4965891,18.9333898 18.8863797,19.8908125 C17.1564926,20.935272 15.5245236,20.984231 13.7456775,19.7765737 C10.8897318,17.8182107 7.90322866,16.0556856 4.98200423,14.1952406 C4.4271348,13.8579674 3.87226535,13.5152527 3.3173959,13.1671001 C2.19133733,12.4490326 2.27293578,11.55145 3.36635498,10.7844254 C4.49241355,10.0010798 5.37367678,10.1479567 6.49973535,10.8660243 C9.14352505,12.5632714 11.9015526,14.0973226 14.5943013,15.7292917 C15.1165314,16.0556856 15.5245236,16.0556856 16.0141143,15.7129708 C16.4873853,15.386577 17.0259351,15.1091422 17.662403,14.7174703 C14.3005469,12.5632714 11.1182075,10.5233096 7.80531051,8.40175061 C9.35568101,7.5204871 10.7591743,6.7208225 12.1626676,5.95379599 C13.3866443,5.26837025 14.6432604,4.63190165 15.8509174,3.91383597 C16.3894672,3.62008208 16.8137791,3.58744214 17.3686486,3.89751507 Z M49.7795518,21.0850389 C49.7795518,22.929163 49.7469124,24.8548879 49.1267642,25.8667075 C48.6589331,26.6718117 47.8864678,27.362679 46.8093684,27.9393093 C45.307957,28.6900149 43.2516761,28.575776 41.1953951,28.575776 L40.4446895,28.575776 L40.8690013,24.2836973 C41.4075512,24.2836973 43.5127911,24.2184193 43.8718243,24.0389024 C44.7694073,23.5819507 44.8999648,22.9781239 44.8999648,21.7541456 L44.8999648,8.53519846 L49.7795518,8.14352475 L49.7795518,21.0850389 Z M87.4290755,20.4485703 L87.4290755,28.41258 L83.2022759,28.41258 L83.2022759,19.6978647 C83.2022759,18.8492411 82.8106033,18.3378907 82.0272583,18.1638154 C81.5920666,18.0876562 81.1242355,18.1094149 80.6237651,18.2290934 C80.2103328,18.3378907 79.8023406,18.5065283 79.3997883,18.7350041 L79.3997883,28.41258 L75.1729887,28.41258 L75.1729887,19.6978647 C75.1729887,18.8492411 74.7813161,18.3378907 73.9979711,18.1638154 C73.6498176,18.1311755 73.3778229,18.1257358 73.1819866,18.1474945 C72.844713,18.1910138 72.5727182,18.2454125 72.366002,18.3106923 C72.0287284,18.4086103 71.7077747,18.5500476 71.4031405,18.7350041 L71.3705011,18.7350041 L71.3705011,28.41258 L67.1926605,28.41258 L67.1926605,14.7693192 L70.9788285,14.7693192 C70.9788285,14.7693192 71.0114679,15.5526648 71.0441073,15.6669018 L71.1909844,15.5853029 C71.2780228,15.5417836 71.3596212,15.4982661 71.4357799,15.4547468 C71.6968947,15.3350683 71.9580098,15.226271 72.2191249,15.128353 C72.5890378,14.9869157 72.9643906,14.8781166 73.3451835,14.8019592 C73.8130146,14.7040412 74.2754058,14.644201 74.7323571,14.6224423 L74.9771524,14.6224423 C75.5973007,14.6061214 76.2990473,14.6877203 76.7070395,14.9161962 C77.5067043,15.340508 77.6372618,15.6669018 78.045254,16.0096147 C78.0887731,16.0096147 78.1159726,16.0204959 78.1268526,16.0422546 C78.4858856,15.9116967 79.0081157,15.4547468 79.2692308,15.3241889 C79.677223,15.0957131 80.1668137,14.8835562 80.4932075,14.8182782 C81.3091919,14.6061214 81.7008645,14.5898024 82.4352505,14.5898024 C84.8723241,14.5898024 86.3574159,15.2317106 86.8905258,16.5155254 C87.249559,17.0486363 87.4290755,18.3596513 87.4290755,20.4485703 L87.4290755,20.4485703 Z M111.125265,28.8042519 C110.146083,28.8042519 109.074424,28.7389739 107.910286,28.608416 C107.464214,28.5648967 107.001823,28.510498 106.523112,28.4452181 L105.429693,28.2657031 L104.809545,23.5166727 L106.000882,24.0225834 L107.469654,24.4305761 C108.046283,24.5284941 108.590273,24.5992118 109.101623,24.6427311 C109.721771,24.708011 110.276641,24.740649 110.766231,24.740649 C112.572277,24.740649 113.616737,24.3272166 113.899612,23.5003536 C114.062809,23.1576389 114.062809,22.2274164 113.883292,21.9173435 C113.709215,21.5583097 113.339302,21.2482368 112.773553,20.987121 C112.534198,20.8783236 112.229564,20.7695245 111.859651,20.6607271 L110.798871,20.3343333 C110.32016,20.2146548 109.895848,20.0949781 109.525935,19.9752996 C109.047224,19.8338623 108.606593,19.6815457 108.20404,19.5183497 C107.224859,19.094036 106.457833,18.6098859 105.902964,18.0658956 C105.380734,17.5110277 105.0489,16.8310398 104.907463,16.0259356 C104.798665,15.4601865 104.782345,14.8073989 104.858504,14.0675726 C105.086979,11.9677724 105.990002,10.5207598 107.567572,9.7265349 C108.155081,9.41102044 108.862268,9.18798611 109.689132,9.05742821 C110.015526,9.00302954 110.385439,8.95951024 110.798871,8.92687031 L111.859651,8.84527139 L112.594037,8.84527139 C113.410021,8.84527139 114.313044,8.89423037 115.303105,8.99214833 L116.510762,9.13902713 L117.522583,9.28590407 L117.995854,13.9370147 C117.587862,13.6269418 116.722918,13.2026281 115.890614,13.0883911 C114.846154,12.9469539 113.894172,12.8762343 113.034668,12.8762343 C111.141584,12.8762343 110.031845,13.3005479 109.705452,14.1491715 C109.574894,14.5082034 109.580334,14.8509182 109.721771,15.177312 C109.906728,15.5472251 110.30384,15.8736189 110.913109,16.1564935 C111.174224,16.2652908 111.500617,16.390409 111.89229,16.5318463 L114.356563,17.266231 C114.824394,17.4076682 115.248706,17.5599867 115.629499,17.7231827 C116.532522,18.1039752 117.212509,18.5446079 117.66946,19.0450771 C118.22433,19.5890674 118.577923,20.2690553 118.73024,21.0850389 C118.844478,21.6725486 118.844478,22.912844 118.762879,23.5982716 C118.545284,25.6871906 117.647701,27.1342032 116.07013,27.9393093 C115.493502,28.2548219 114.786315,28.4778581 113.948571,28.608416 C113.622177,28.6628146 113.252264,28.7063339 112.838832,28.7389739 L111.87597,28.8042519 L111.125265,28.8042519 Z M156.118648,28.41258 L150.76579,28.41258 L145.951482,14.8182782 L150.928987,14.8182782 L153.40958,24.7569699 L155.841214,14.8182782 L160.78608,14.8182782 L156.118648,28.41258 Z M89.974947,14.7366793 L93.3857622,14.7366793 L93.5815985,15.6179428 C93.9623911,15.4221069 94.3323041,15.2534694 94.6913373,15.1120321 C95.126529,14.9379568 95.5617207,14.8128385 95.9969124,14.7366793 C97.0631321,14.5190846 98.0912726,14.5626039 99.0813338,14.8672372 C99.7123618,15.0739525 100.256351,15.4329862 100.713303,15.9443366 C100.887379,16.1401726 101.045136,16.3523294 101.186574,16.5808052 L101.349771,16.8745591 C101.38241,16.9507184 101.420489,17.0323154 101.464008,17.119354 C101.638085,17.5871851 101.763203,18.1039752 101.839361,18.6697243 C101.9264,19.3116325 101.969919,20.1439371 101.969919,21.1666379 L101.969919,22.4722132 C101.969919,24.4795351 101.806722,25.2465598 101.464008,25.8503884 C100.930898,27.1015651 99.4675665,27.7271525 97.074012,27.7271525 C96.6714597,27.7271525 96.2743472,27.6999522 95.8826747,27.6455535 L94.9524523,27.4823576 C94.5825394,27.3844396 94.2996647,27.297401 94.1038284,27.2212418 L94.1038284,34.320307 L89.974947,33.9775941 L89.974947,14.7366793 Z M94.1038284,23.6635496 C94.8001352,24.0443421 95.4474829,24.2347383 96.0458716,24.2347383 L96.6497001,24.2021002 C97.4221653,24.0389024 97.808398,23.5438729 97.808398,22.7170081 L97.808398,20.1221765 C97.808398,19.741384 97.7757587,19.4639492 97.7104799,19.2898738 C97.4602446,18.4521296 96.7802576,18.1257358 95.6705186,18.3106923 L95.2135674,18.3759704 L94.4302222,18.6044462 L94.1038284,18.7186832 L94.1038284,23.6635496 Z M133.401641,20.4159322 L133.401641,22.847566 L125.764026,22.847566 L125.764026,23.2555569 C125.764026,24.1803397 126.046901,24.740649 126.61265,24.936485 C127.058721,25.0670429 127.559192,25.1323227 128.114061,25.1323227 L128.440455,25.1323227 C129.941867,25.1323227 130.855769,25.0833638 132.422459,24.7569699 L132.455099,24.7569699 L133.075247,28.0535463 C133.075247,28.0970656 132.362621,28.2385028 130.937368,28.4778581 C130.034345,28.575776 129.000765,28.624735 127.836627,28.624735 C124.844684,28.624735 122.90808,27.6129155 122.026817,25.5892726 C121.711303,24.7950477 121.553546,23.9573035 121.553546,23.0760418 L121.553546,19.8121036 C121.553546,17.4185495 122.559927,15.82466 124.572689,15.030435 C125.453952,14.7366793 126.405934,14.5898024 127.428634,14.5898024 C130.246501,14.5898024 132.074306,15.5091455 132.91205,17.3478299 C133.238444,18.0767768 133.401641,19.0994776 133.401641,20.4159322 L133.401641,20.4159322 Z M129.191161,19.7794636 C129.191161,18.8329221 128.984445,18.2726127 128.571013,18.0985355 C128.266379,17.8918202 127.891026,17.7884626 127.444954,17.7884626 C126.324335,17.7884626 125.764026,18.316132 125.764026,19.3714709 L125.764026,20.0079395 L129.191161,20.0079395 L129.191161,19.7794636 Z M174.298783,20.4159322 L174.298783,22.847566 L166.661168,22.847566 L166.661168,23.2555569 C166.661168,24.1803397 166.944042,24.740649 167.509792,24.936485 C167.955863,25.0670429 168.456334,25.1323227 169.011203,25.1323227 L169.353917,25.1323227 C170.839008,25.1323227 171.752911,25.0833638 173.319601,24.7569699 L173.352241,24.7569699 L173.972389,28.0535463 C173.972389,28.0970656 173.259762,28.2385028 171.834509,28.4778581 C170.931487,28.575776 169.897906,28.624735 168.733768,28.624735 C165.741825,28.624735 163.810662,27.6129155 162.940279,25.5892726 C162.613885,24.7950477 162.450688,23.9573035 162.450688,23.0760418 L162.450688,19.8121036 C162.450688,17.4185495 163.457069,15.82466 165.469831,15.030435 C166.361974,14.7366793 167.313955,14.5898024 168.325776,14.5898024 C171.143643,14.5898024 172.971448,15.5091455 173.809192,17.3478299 C174.135586,18.0767768 174.298783,19.0994776 174.298783,20.4159322 Z M170.088303,19.7794636 C170.088303,18.8329221 169.881587,18.2726127 169.468154,18.0985355 C169.16352,17.8918202 168.788167,17.7884626 168.342096,17.7884626 C167.221477,17.7884626 166.661168,18.316132 166.661168,19.3714709 L166.661168,20.0079395 L170.088303,20.0079395 L170.088303,19.7794636 Z M144.907022,15.144672 L144.743825,18.5228473 C144.074718,18.4902092 143.846242,18.4249293 143.095536,18.4575693 L142.556987,18.5065283 C142.051076,18.6207653 141.153493,18.7676422 139.978476,19.1919559 L139.978476,28.2330632 L135.914873,28.2330632 L135.914873,14.8182782 L139.407286,14.8182782 C139.407286,14.8182782 139.554164,15.5200248 139.619443,15.7974597 L140.582304,15.4384259 C141.137174,15.24259 141.83892,15.030435 142.605946,15.0141141 C144.042078,14.9651552 144.450071,15.0467541 144.907022,15.144672 Z M186,15.144672 L185.836803,18.5228473 C185.167696,18.4902092 184.93922,18.4249293 184.188514,18.4575693 L183.649965,18.5065283 C183.144054,18.6207653 182.246471,18.7676422 181.071454,19.1919559 L181.071454,28.2330632 L177.007851,28.2330632 L177.007851,14.8182782 L180.500264,14.8182782 C180.500264,14.8182782 180.647142,15.5200248 180.712421,15.7974597 L181.675282,15.4384259 C182.230152,15.24259 182.931898,15.030435 183.698924,15.0141141 C185.135056,14.9651552 185.543049,15.0467541 186,15.144672 L186,15.144672 Z M52.2601447,22.6190901 L52.2601447,14.8182782 L56.4869443,15.1120321 L56.4869443,23.3861148 C56.4869443,24.2347383 56.8894966,24.7515284 57.6946013,24.936485 C58.0427546,24.9691249 58.3147494,24.9800043 58.5105857,24.9691249 C59.1633733,24.9201659 59.652964,24.887526 60.2894319,24.6590501 L60.3547107,14.8182782 L64.5651905,15.2099501 L64.5651905,28.3309811 L60.7953423,28.3309811 C60.7953423,28.3309811 60.6974241,27.8740294 60.6647847,27.7597924 C60.6647847,27.7597924 58.7390613,28.2493822 58.3800281,28.3309811 C57.9013173,28.4288991 57.4280464,28.4832978 56.9602153,28.4941771 C56.0027934,28.5485776 55.2303282,28.461539 54.6428193,28.2330632 C53.8921137,27.9501886 53.2665255,27.4061983 52.7660551,26.601094 C52.4287815,25.9047871 52.2601447,24.5774531 52.2601447,22.6190901 L52.2601447,22.6190901 Z" id="形状结合" fill="#FFFFFF" fill-rule="nonzero"></path>
    </g>
</svg>