<?xml version="1.0" encoding="utf-8"?>
<svg version="1.1" xmlns="http://www.w3.org/2000/svg" xmlns:xlink="http://www.w3.org/1999/xlink" x="0px" y="0px"
	 viewBox="0 0 16 16" style="enable-background:new 0 0 16 16;" xml:space="preserve">
<style type="text/css">.st0{fill:#333333;}</style>
<path class="st0" d="M11.4,0.7c1.8,0.9,3.1,2.1,3.9,3.9l-1,0.5c-0.6-1.3-2-2.7-3.3-3.4">
<animate  accumulate="none" additive="replace" attributeName="fill" begin="0s" calcMode="linear" dur="1s" fill="remove" repeatCount="indefinite" restart="always" values="#333;#eee;#333;#333">
		</animate>
</path>
<path class="st0" d="M15.5,5.2c0.6,1.9,0.7,3.7,0,5.5l-1-0.4c0.5-1.4,0.5-3.3,0-4.8">
<animate  accumulate="none" additive="replace" attributeName="fill" begin="0.125s" calcMode="linear" dur="1s" fill="remove" repeatCount="indefinite" restart="always" values="#333;#eee;#333;#333">
		</animate>
</path>
<path class="st0" d="M15.2,11.4c-0.9,1.8-2.1,3.1-3.9,3.9l-0.5-1c1.3-0.6,2.7-2,3.3-3.4">
<animate  accumulate="none" additive="replace" attributeName="fill" begin="0.250s" calcMode="linear" dur="1s" fill="remove" repeatCount="indefinite" restart="always" values="#333;#eee;#333;#333">
		</animate>
</path>
<path class="st0" d="M10.7,15.5c-1.9,0.6-3.6,0.7-5.5,0l0.4-1.1c1.4,0.5,3.3,0.5,4.7,0">
<animate  accumulate="none" additive="replace" attributeName="fill" begin="0.375s" calcMode="linear" dur="1s" fill="remove" repeatCount="indefinite" restart="always" values="#333;#eee;#333;#333">
		</animate>
</path>
<path class="st0" d="M4.7,15.3c-1.8-0.9-3.1-2.1-3.9-3.9l1-0.5c0.6,1.3,2,2.7,3.3,3.4">
<animate  accumulate="none" additive="replace" attributeName="fill" begin="0.500s" calcMode="linear" dur="1s" fill="remove" repeatCount="indefinite" restart="always" values="#333;#eee;#333;#333">
		</animate>
</path>
<path class="st0" d="M0.5,10.8c-0.6-1.9-0.7-3.7,0-5.5l1.1,0.4c-0.5,1.4-0.5,3.3,0,4.8">
<animate  accumulate="none" additive="replace" attributeName="fill" begin="0.625s" calcMode="linear" dur="1s" fill="remove" repeatCount="indefinite" restart="always" values="#333;#eee;#333;#333">
		</animate>
</path>
<path class="st0" d="M0.7,4.7c0.9-1.8,2.1-3.1,3.9-3.9l0.5,1c-1.3,0.6-2.7,2-3.3,3.4">
<animate  accumulate="none" additive="replace" attributeName="fill" begin="0.750s" calcMode="linear" dur="1s" fill="remove" repeatCount="indefinite" restart="always" values="#333;#eee;#333;#333">
		</animate>
</path>
<path class="st0" d="M5.3,0.5c1.9-0.6,3.6-0.7,5.5,0l-0.4,1.1C9,1.1,7.1,1.1,5.7,1.6">
<animate  accumulate="none" additive="replace" attributeName="fill" begin="0.875s" calcMode="linear" dur="1s" fill="remove" repeatCount="indefinite" restart="always" values="#333;#eee;#333;#333">
		</animate>
</path>
</svg>
